<mxfile host="Electron" modified="2024-05-28T03:57:05.378Z" agent="Mozilla/5.0 (Macintosh; Intel Mac OS X 10_15_7) AppleWebKit/537.36 (KHTML, like Gecko) draw.io/24.4.8 Chrome/124.0.6367.207 Electron/30.0.6 Safari/537.36" etag="kj8iqRERgJ2gsEa5IbjG" version="24.4.8" type="device">
  <diagram name="PÃ¡gina-1" id="kE4jSKe3oztrGJUC4F_u">
    <mxGraphModel dx="1231" dy="792" grid="1" gridSize="10" guides="1" tooltips="1" connect="1" arrows="1" fold="1" page="1" pageScale="1" pageWidth="827" pageHeight="1169" math="1" shadow="0">
      <root>
        <mxCell id="0" />
        <mxCell id="1" parent="0" />
        <mxCell id="X14nVRqH4kQUv8Vicz0R-9" value="" style="group" vertex="1" connectable="0" parent="1">
          <mxGeometry x="170" y="60" width="390" height="230" as="geometry" />
        </mxCell>
        <mxCell id="X14nVRqH4kQUv8Vicz0R-1" value="&lt;h2&gt;&lt;br&gt;&lt;/h2&gt;&lt;h2&gt;&lt;br&gt;&lt;/h2&gt;&lt;h2&gt;&lt;br&gt;&lt;/h2&gt;&lt;h2&gt;&lt;br&gt;&lt;/h2&gt;&lt;h2&gt;s&lt;/h2&gt;" style="ellipse;whiteSpace=wrap;html=1;" vertex="1" parent="X14nVRqH4kQUv8Vicz0R-9">
          <mxGeometry y="40" width="120" height="190" as="geometry" />
        </mxCell>
        <mxCell id="X14nVRqH4kQUv8Vicz0R-2" value="&lt;h2&gt;&lt;br&gt;&lt;/h2&gt;&lt;h2&gt;&lt;br&gt;&lt;/h2&gt;&lt;h2&gt;&lt;br&gt;&lt;/h2&gt;&lt;h2&gt;&lt;br&gt;&lt;/h2&gt;&lt;h2&gt;z&lt;/h2&gt;" style="ellipse;whiteSpace=wrap;html=1;" vertex="1" parent="X14nVRqH4kQUv8Vicz0R-9">
          <mxGeometry x="270" y="40" width="120" height="190" as="geometry" />
        </mxCell>
        <mxCell id="X14nVRqH4kQUv8Vicz0R-3" value="" style="endArrow=classic;html=1;rounded=0;curved=1;" edge="1" parent="X14nVRqH4kQUv8Vicz0R-9">
          <mxGeometry width="50" height="50" relative="1" as="geometry">
            <mxPoint x="40" y="100" as="sourcePoint" />
            <mxPoint x="344" y="100" as="targetPoint" />
            <Array as="points">
              <mxPoint x="190" />
            </Array>
          </mxGeometry>
        </mxCell>
        <mxCell id="X14nVRqH4kQUv8Vicz0R-4" value="" style="endArrow=none;html=1;rounded=0;curved=1;startArrow=classic;startFill=0;endFill=0;" edge="1" parent="X14nVRqH4kQUv8Vicz0R-9">
          <mxGeometry width="50" height="50" relative="1" as="geometry">
            <mxPoint x="70" y="181.5" as="sourcePoint" />
            <mxPoint x="309" y="178" as="targetPoint" />
            <Array as="points">
              <mxPoint x="200" y="80" />
            </Array>
          </mxGeometry>
        </mxCell>
        <mxCell id="X14nVRqH4kQUv8Vicz0R-5" value="$$z=e^{sT}$$" style="text;html=1;align=center;verticalAlign=middle;whiteSpace=wrap;rounded=0;fontSize=19;" vertex="1" parent="X14nVRqH4kQUv8Vicz0R-9">
          <mxGeometry x="170" y="20" width="60" height="30" as="geometry" />
        </mxCell>
        <mxCell id="X14nVRqH4kQUv8Vicz0R-7" value="$$s=\dfrac{1}{T}\,\ln(z)$$" style="text;html=1;align=center;verticalAlign=middle;whiteSpace=wrap;rounded=0;fontSize=18;" vertex="1" parent="X14nVRqH4kQUv8Vicz0R-9">
          <mxGeometry x="170" y="90" width="60" height="30" as="geometry" />
        </mxCell>
      </root>
    </mxGraphModel>
  </diagram>
</mxfile>
